<?xml version="1.0" encoding="UTF-8"?>
<svg xmlns="http://www.w3.org/2000/svg" xmlns:xlink="http://www.w3.org/1999/xlink" width="97.8pt" height="31.18pt" viewBox="0 0 97.8 31.18" version="1.2">
<defs>
<clipPath id="clip1">
  <path d="M 38 21 L 81 21 L 81 30.382812 L 38 30.382812 Z M 38 21 "/>
</clipPath>
<clipPath id="clip2">
  <path d="M 1.15625 0 L 33 0 L 33 30.382812 L 1.15625 30.382812 Z M 1.15625 0 "/>
</clipPath>
</defs>
<g id="surface1">
<g clip-path="url(#clip1)" clip-rule="nonzero">
<path style=" stroke:none;fill-rule:nonzero;fill:#ffffff;fill-opacity:1;" d="M 44.871094 27.140625 C 44.871094 26.722656 44.789062 26.367188 44.75 26.226562 C 44.394531 24.730469 43.328125 24.253906 42.757812 24.089844 C 42.332031 23.96875 41.960938 23.957031 41.796875 23.957031 C 41.273438 23.957031 39.71875 24.078125 38.996094 25.597656 C 38.660156 26.261719 38.636719 26.914062 38.636719 27.175781 C 38.636719 29.0625 39.847656 30.367188 41.75 30.367188 C 43.246094 30.367188 44.40625 29.585938 44.75 28.101562 C 44.789062 27.96875 44.871094 27.554688 44.871094 27.140625 M 43.410156 27.128906 C 43.398438 27.875 43.246094 28.898438 42.566406 29.347656 C 42.4375 29.429688 42.1875 29.574219 41.796875 29.574219 C 41.429688 29.574219 41.105469 29.453125 40.835938 29.21875 C 40.417969 28.863281 40.238281 28.363281 40.15625 27.839844 C 40.144531 27.734375 40.109375 27.449219 40.109375 27.140625 C 40.109375 25.976562 40.5 25.324219 40.917969 25.027344 C 41.261719 24.777344 41.605469 24.753906 41.757812 24.753906 C 41.914062 24.753906 42.222656 24.777344 42.542969 24.980469 C 43.445312 25.550781 43.410156 26.960938 43.410156 27.128906 M 46.195312 24.113281 L 45.269531 24.113281 L 45.269531 25.0625 L 46.195312 25.0625 L 46.195312 30.214844 L 47.605469 30.214844 L 47.605469 25.0625 L 48.6875 25.0625 L 48.6875 24.113281 L 47.605469 24.113281 L 47.605469 22.890625 C 47.605469 22.796875 47.546875 22.167969 48.058594 21.988281 C 48.203125 21.929688 48.34375 21.929688 48.390625 21.929688 C 48.519531 21.929688 48.628906 21.964844 48.675781 21.988281 L 48.6875 21.0625 C 48.546875 21.0625 47.75 21.003906 47.15625 21.265625 C 46.21875 21.679688 46.21875 22.84375 46.207031 23.070312 C 46.195312 23.210938 46.195312 23.351562 46.195312 23.484375 Z M 53.390625 30.214844 L 56.011719 30.214844 C 56.605469 30.203125 56.855469 30.167969 57.152344 30.09375 C 58.230469 29.835938 58.765625 29.109375 58.945312 28.730469 C 59.121094 28.351562 59.132812 27.984375 59.132812 27.839844 C 59.132812 27.070312 58.800781 26.664062 58.585938 26.4375 C 58.480469 26.34375 58.375 26.25 58.265625 26.144531 L 57.804688 25.714844 C 58.289062 25.191406 58.800781 24.660156 58.800781 23.898438 C 58.800781 23.671875 58.742188 23.210938 58.363281 22.734375 C 57.699219 21.878906 56.796875 21.84375 56.414062 21.835938 C 56.25 21.824219 56.070312 21.824219 55.90625 21.835938 L 53.390625 21.835938 Z M 54.835938 22.820312 C 55.015625 22.726562 55.3125 22.582031 55.796875 22.582031 C 56.453125 22.582031 57.140625 22.867188 57.460938 23.460938 C 57.507812 23.542969 57.613281 23.746094 57.613281 24.019531 C 57.613281 24.46875 57.28125 24.824219 57.210938 24.910156 C 56.902344 25.253906 56.476562 25.585938 56.476562 26.046875 C 56.476562 26.191406 56.511719 26.320312 56.582031 26.453125 C 56.628906 26.523438 56.726562 26.652344 56.878906 26.808594 C 57.257812 27.164062 57.757812 27.460938 57.757812 28.042969 C 57.757812 28.386719 57.628906 28.707031 57.386719 28.957031 C 57.03125 29.347656 56.523438 29.464844 56.011719 29.464844 C 55.429688 29.464844 55.085938 29.335938 54.847656 29.265625 Z M 65.929688 24.042969 L 65.167969 24.492188 C 64.125 24.066406 63.78125 23.957031 63.164062 23.957031 C 61.988281 23.957031 60.871094 24.5625 60.347656 25.621094 C 60.027344 26.273438 60.003906 26.949219 60.003906 27.1875 C 60.003906 27.996094 60.277344 28.578125 60.421875 28.851562 C 60.621094 29.195312 60.847656 29.417969 60.957031 29.527344 C 61.738281 30.203125 62.710938 30.191406 63.03125 30.203125 C 63.246094 30.214844 63.449219 30.214844 63.648438 30.214844 L 65.929688 30.214844 Z M 64.539062 29.179688 C 63.949219 29.382812 63.710938 29.417969 63.375 29.417969 C 63.234375 29.429688 62.855469 29.410156 62.488281 29.242188 C 61.65625 28.863281 61.546875 27.984375 61.511719 27.710938 C 61.464844 27.425781 61.464844 27.1875 61.464844 27.070312 C 61.464844 26.867188 61.464844 25.558594 62.378906 24.96875 C 62.734375 24.742188 63.078125 24.707031 63.234375 24.707031 C 64.019531 24.707031 64.351562 25.253906 64.445312 25.515625 C 64.539062 25.761719 64.539062 26.046875 64.539062 26.132812 Z M 67.167969 28.683594 L 67.15625 30.035156 C 67.464844 30.15625 67.964844 30.367188 68.757812 30.378906 C 69.671875 30.378906 70.148438 30.09375 70.46875 29.824219 C 71.074219 29.289062 71.121094 28.648438 71.121094 28.339844 C 71.121094 28.125 71.074219 27.507812 70.550781 27.082031 C 70.207031 26.796875 69.707031 26.640625 69.292969 26.472656 C 68.925781 26.332031 68.734375 26.226562 68.59375 26.09375 C 68.449219 25.976562 68.367188 25.785156 68.367188 25.585938 C 68.367188 25.488281 68.390625 25.289062 68.546875 25.097656 C 68.820312 24.777344 69.351562 24.753906 69.433594 24.753906 C 69.851562 24.753906 70.195312 24.921875 70.515625 25.171875 C 70.625 25.242188 70.71875 25.3125 70.8125 25.394531 L 70.8125 24.195312 C 70.335938 24.042969 69.980469 23.945312 69.484375 23.945312 C 69.152344 23.945312 68.84375 23.996094 68.722656 24.019531 C 68.34375 24.101562 68.09375 24.230469 67.964844 24.3125 C 67.441406 24.660156 67.109375 25.277344 67.109375 25.894531 C 67.109375 26.074219 67.144531 26.59375 67.511719 26.984375 C 67.867188 27.363281 68.523438 27.566406 68.617188 27.601562 C 69.117188 27.769531 69.863281 27.984375 69.863281 28.648438 C 69.863281 28.730469 69.851562 28.910156 69.722656 29.085938 C 69.589844 29.265625 69.339844 29.511719 68.820312 29.511719 C 68.058594 29.511719 67.511719 29.050781 67.347656 28.898438 Z M 77.6875 27.199219 C 77.671875 26.960938 77.710938 26.105469 77.351562 25.371094 C 76.710938 24.078125 75.335938 23.957031 74.90625 23.957031 C 74.515625 23.957031 73.421875 24.054688 72.652344 24.96875 C 71.9375 25.8125 71.890625 26.890625 71.890625 27.234375 C 71.890625 28.707031 72.652344 29.480469 73.136719 29.808594 C 73.472656 30.046875 74.136719 30.367188 75.144531 30.378906 C 75.925781 30.378906 76.511719 30.191406 76.785156 30.09375 C 77.089844 29.976562 77.351562 29.835938 77.460938 29.777344 L 77.460938 28.578125 C 77.1875 28.835938 77.089844 28.933594 76.925781 29.050781 C 76.320312 29.503906 75.761719 29.550781 75.453125 29.550781 C 74.953125 29.550781 74.382812 29.394531 74.027344 29.039062 C 73.578125 28.613281 73.449219 27.960938 73.410156 27.792969 C 73.375 27.578125 73.375 27.425781 73.363281 27.199219 Z M 73.421875 26.414062 C 73.449219 26.238281 73.472656 26.058594 73.53125 25.882812 C 73.601562 25.65625 73.957031 24.777344 74.871094 24.765625 C 75 24.765625 75.277344 24.789062 75.570312 24.980469 C 76.105469 25.3125 76.1875 25.820312 76.226562 26.402344 Z M 80.207031 21.0625 L 78.792969 21.0625 L 78.792969 30.214844 L 80.207031 30.214844 L 80.207031 21.0625 "/>
</g>
<path style=" stroke:none;fill-rule:nonzero;fill:#ffffff;fill-opacity:1;" d="M 46.070312 9.78125 L 44.621094 9.78125 L 44.621094 14.554688 C 44.632812 15.289062 44.621094 15.667969 44.527344 16.023438 C 44.417969 16.394531 44.230469 16.628906 44.132812 16.75 C 43.945312 16.960938 43.660156 17.222656 43.03125 17.332031 C 42.78125 17.378906 42.578125 17.378906 42.484375 17.378906 C 41.238281 17.378906 40.726562 16.714844 40.539062 16.226562 C 40.394531 15.847656 40.359375 15.394531 40.371094 14.554688 L 40.371094 9.78125 L 38.921875 9.78125 L 38.921875 14.246094 C 38.910156 15.230469 38.945312 15.765625 39.089844 16.203125 C 39.242188 16.726562 39.574219 17.214844 40.015625 17.542969 C 40.394531 17.851562 41.238281 18.316406 42.484375 18.316406 C 43.613281 18.316406 44.417969 17.925781 44.789062 17.699219 C 45.652344 17.128906 45.902344 16.296875 45.988281 15.917969 C 46.070312 15.515625 46.082031 15.097656 46.070312 14.246094 Z M 47.53125 12.058594 L 47.53125 18.160156 L 48.941406 18.160156 L 48.941406 13.117188 C 49.179688 12.996094 49.441406 12.855469 50 12.855469 C 50.910156 12.855469 51.269531 13.269531 51.398438 13.675781 C 51.457031 13.863281 51.484375 14.054688 51.496094 14.46875 L 51.496094 18.160156 L 52.894531 18.160156 L 52.894531 14.46875 C 52.847656 13.78125 52.800781 13.175781 52.242188 12.699219 C 51.566406 12.121094 50.675781 12.058594 48.941406 12.058594 Z M 55.96875 12.058594 L 54.558594 12.058594 L 54.558594 18.164062 L 55.96875 18.164062 Z M 54.425781 10.542969 C 54.425781 11.003906 54.804688 11.371094 55.257812 11.371094 C 55.71875 11.371094 56.101562 11.003906 56.101562 10.542969 C 56.101562 10.078125 55.734375 9.699219 55.269531 9.699219 C 54.804688 9.699219 54.425781 10.078125 54.425781 10.542969 M 63.769531 12.058594 L 62.5 12.058594 L 60.753906 16.929688 C 60.667969 17.1875 60.660156 17.25 60.46875 17.25 L 58.628906 12.058594 L 57.097656 12.058594 L 59.351562 18.160156 L 60.078125 18.160156 C 60.515625 18.148438 60.859375 18.136719 61.238281 17.902344 C 61.738281 17.578125 61.976562 16.972656 62.167969 16.453125 Z M 69.785156 15.148438 C 69.773438 14.910156 69.808594 14.054688 69.453125 13.320312 C 68.8125 12.023438 67.433594 11.90625 67.007812 11.90625 C 66.617188 11.90625 65.523438 12 64.753906 12.914062 C 64.039062 13.757812 63.992188 14.839844 63.992188 15.183594 C 63.992188 16.65625 64.753906 17.425781 65.238281 17.757812 C 65.570312 17.996094 66.238281 18.316406 67.246094 18.328125 C 68.03125 18.328125 68.609375 18.136719 68.882812 18.042969 C 69.191406 17.925781 69.453125 17.78125 69.5625 17.722656 L 69.5625 16.523438 C 69.289062 16.785156 69.191406 16.878906 69.027344 17 C 68.421875 17.449219 67.863281 17.496094 67.554688 17.496094 C 67.054688 17.496094 66.484375 17.34375 66.128906 16.988281 C 65.679688 16.558594 65.546875 15.90625 65.511719 15.742188 C 65.476562 15.527344 65.476562 15.371094 65.464844 15.148438 Z M 65.523438 14.363281 C 65.546875 14.183594 65.570312 14.007812 65.632812 13.828125 C 65.703125 13.601562 66.058594 12.726562 66.972656 12.714844 C 67.101562 12.714844 67.375 12.734375 67.675781 12.925781 C 68.207031 13.257812 68.289062 13.769531 68.328125 14.351562 Z M 70.902344 12.058594 L 70.902344 18.160156 L 72.316406 18.160156 L 72.316406 12.972656 C 72.539062 12.867188 72.800781 12.761719 73.335938 12.796875 C 73.289062 12.867188 73.203125 12.960938 73.203125 13.164062 C 73.203125 13.34375 73.253906 13.460938 73.277344 13.519531 C 73.40625 13.816406 73.691406 13.984375 74.023438 13.984375 C 74.558594 13.984375 74.878906 13.589844 74.878906 13.082031 C 74.878906 12.796875 74.757812 12.605469 74.714844 12.523438 C 74.425781 12.09375 73.882812 12.085938 73.417969 12.058594 Z M 75.59375 16.628906 L 75.582031 17.984375 C 75.890625 18.101562 76.386719 18.316406 77.183594 18.328125 C 78.097656 18.328125 78.574219 18.042969 78.894531 17.769531 C 79.5 17.234375 79.546875 16.59375 79.546875 16.285156 C 79.546875 16.070312 79.5 15.453125 78.976562 15.027344 C 78.632812 14.742188 78.132812 14.589844 77.71875 14.421875 C 77.351562 14.28125 77.160156 14.175781 77.015625 14.042969 C 76.875 13.921875 76.792969 13.734375 76.792969 13.53125 C 76.792969 13.4375 76.816406 13.234375 76.972656 13.046875 C 77.242188 12.726562 77.777344 12.699219 77.859375 12.699219 C 78.277344 12.699219 78.621094 12.867188 78.941406 13.117188 C 79.046875 13.1875 79.144531 13.257812 79.238281 13.34375 L 79.238281 12.144531 C 78.761719 11.988281 78.40625 11.894531 77.910156 11.894531 C 77.574219 11.894531 77.265625 11.941406 77.148438 11.964844 C 76.769531 12.050781 76.519531 12.179688 76.386719 12.261719 C 75.867188 12.605469 75.535156 13.222656 75.535156 13.839844 C 75.535156 14.019531 75.570312 14.539062 75.9375 14.933594 C 76.292969 15.3125 76.945312 15.515625 77.042969 15.550781 C 77.539062 15.714844 78.289062 15.929688 78.289062 16.59375 C 78.289062 16.675781 78.277344 16.855469 78.144531 17.035156 C 78.015625 17.214844 77.765625 17.460938 77.242188 17.460938 C 76.484375 17.460938 75.9375 17 75.769531 16.84375 Z M 82.3125 12.058594 L 80.898438 12.058594 L 80.898438 18.164062 L 82.3125 18.164062 Z M 80.769531 10.542969 C 80.769531 11.003906 81.148438 11.371094 81.601562 11.371094 C 82.0625 11.371094 82.441406 11.003906 82.441406 10.542969 C 82.441406 10.078125 82.074219 9.699219 81.613281 9.699219 C 81.148438 9.699219 80.769531 10.078125 80.769531 10.542969 M 86.785156 12.058594 L 85.71875 12.058594 L 85.71875 9.972656 C 85.71875 9.828125 85.730469 9.601562 85.527344 9.601562 C 85.484375 9.601562 85.398438 9.625 85.363281 9.652344 C 85.304688 9.699219 85.292969 9.792969 85.28125 9.945312 C 85.195312 10.492188 85.042969 11.027344 84.6875 11.441406 C 84.199219 12.035156 83.679688 12.050781 83.367188 12.074219 L 83.367188 13.007812 L 84.296875 13.007812 L 84.296875 18.160156 L 85.71875 18.160156 L 85.71875 13.007812 L 86.785156 13.007812 Z M 93.9375 12.058594 L 92.65625 12.058594 L 90.734375 17.449219 L 88.824219 12.058594 L 87.265625 12.058594 L 89.582031 18.148438 C 89.699219 18.199219 89.773438 18.234375 89.820312 18.269531 C 89.984375 18.386719 90.070312 18.601562 90.070312 18.804688 C 90.070312 19.195312 89.808594 19.382812 89.6875 19.457031 C 89.332031 19.644531 88.632812 19.550781 88.609375 19.550781 L 88.597656 20.617188 C 89.082031 20.617188 89.558594 20.617188 90.023438 20.441406 C 90.589844 20.238281 90.875 19.859375 91.136719 19.3125 C 91.316406 18.96875 91.445312 18.601562 91.574219 18.234375 L 93.9375 12.058594 "/>
<g clip-path="url(#clip2)" clip-rule="nonzero">
<path style=" stroke:none;fill-rule:nonzero;fill:#ffffff;fill-opacity:1;" d="M 11.164062 11.160156 C 11.164062 10.78125 11.746094 10.78125 11.746094 11.160156 L 11.746094 19.054688 C 11.746094 19.429688 11.164062 19.429688 11.164062 19.054688 Z M 11.164062 8.984375 C 11.164062 9.359375 11.746094 9.359375 11.746094 8.984375 L 11.746094 0 L 11.164062 0 Z M 11.164062 21.230469 C 11.164062 20.855469 11.746094 20.855469 11.746094 21.230469 L 11.746094 30.214844 L 11.164062 30.214844 Z M 21.46875 19.054688 C 21.46875 19.429688 22.046875 19.429688 22.046875 19.054688 L 22.046875 11.160156 C 22.046875 10.78125 21.46875 10.78125 21.46875 11.160156 Z M 21.46875 0 L 22.046875 0 L 22.046875 8.984375 C 22.046875 9.359375 21.46875 9.359375 21.46875 8.984375 Z M 21.46875 30.214844 L 22.046875 30.214844 L 22.046875 21.230469 C 22.046875 20.855469 21.46875 20.855469 21.46875 21.230469 Z M 20.644531 9.785156 C 21.027344 9.785156 21.027344 10.355469 20.644531 10.355469 L 12.570312 10.355469 C 12.183594 10.355469 12.183594 9.785156 12.570312 9.785156 Z M 12.570312 19.859375 C 12.183594 19.859375 12.183594 20.425781 12.570312 20.425781 L 20.644531 20.425781 C 21.027344 20.425781 21.027344 19.859375 20.644531 19.859375 Z M 32.058594 9.785156 L 32.058594 10.355469 L 22.871094 10.355469 C 22.484375 10.355469 22.484375 9.785156 22.871094 9.785156 Z M 1.15625 9.785156 L 1.15625 10.355469 L 10.34375 10.355469 C 10.726562 10.355469 10.726562 9.785156 10.34375 9.785156 Z M 32.058594 19.859375 L 32.058594 20.425781 L 22.871094 20.425781 C 22.484375 20.425781 22.484375 19.859375 22.871094 19.859375 Z M 1.15625 19.859375 L 1.15625 20.425781 L 10.34375 20.425781 C 10.726562 20.425781 10.726562 19.859375 10.34375 19.859375 Z M 16.207031 14.316406 C 16.480469 14.582031 16.066406 14.984375 15.796875 14.71875 C 15.523438 14.449219 12.039062 11.042969 12.039062 11.042969 C 11.765625 10.777344 12.179688 10.375 12.449219 10.640625 C 12.683594 10.871094 16.207031 14.316406 16.207031 14.316406 M 12.449219 20.714844 C 12.179688 20.449219 11.765625 20.851562 12.039062 21.117188 C 12.039062 21.117188 15.523438 24.523438 15.796875 24.789062 C 16.066406 25.054688 16.480469 24.652344 16.207031 24.386719 C 16.207031 24.386719 12.683594 20.941406 12.449219 20.714844 M 26.507812 14.316406 C 26.78125 14.582031 26.371094 14.984375 26.097656 14.71875 C 25.824219 14.449219 22.34375 11.042969 22.34375 11.042969 C 22.070312 10.777344 22.480469 10.375 22.753906 10.640625 C 22.988281 10.871094 26.507812 14.316406 26.507812 14.316406 M 21.171875 11.042969 C 21.445312 10.777344 21.035156 10.375 20.761719 10.640625 C 20.761719 10.640625 17.277344 14.046875 17.007812 14.3125 C 16.734375 14.582031 17.144531 14.984375 17.417969 14.714844 C 17.417969 14.714844 20.9375 11.273438 21.171875 11.042969 M 17.417969 24.789062 C 17.144531 25.054688 16.734375 24.652344 17.007812 24.386719 C 17.277344 24.121094 20.761719 20.714844 20.761719 20.714844 C 21.035156 20.445312 21.445312 20.847656 21.171875 21.113281 C 20.9375 21.34375 17.417969 24.789062 17.417969 24.789062 M 10.875 11.042969 C 11.148438 10.777344 10.738281 10.375 10.464844 10.640625 C 10.464844 10.640625 6.980469 14.046875 6.710938 14.3125 C 6.4375 14.582031 6.847656 14.984375 7.121094 14.714844 C 7.121094 14.714844 10.640625 11.273438 10.875 11.042969 M 16.207031 15.898438 C 16.480469 15.632812 16.066406 15.230469 15.796875 15.496094 C 15.523438 15.761719 12.039062 19.167969 12.039062 19.167969 C 11.765625 19.4375 12.179688 19.835938 12.449219 19.570312 C 12.683594 19.34375 16.207031 15.898438 16.207031 15.898438 M 12.449219 9.5 C 12.179688 9.765625 11.765625 9.363281 12.039062 9.097656 C 12.039062 9.097656 15.523438 5.6875 15.796875 5.425781 C 16.066406 5.15625 16.480469 5.558594 16.207031 5.824219 C 16.207031 5.824219 12.683594 9.269531 12.449219 9.5 M 26.507812 15.898438 C 26.78125 15.632812 26.371094 15.230469 26.097656 15.496094 C 25.824219 15.761719 22.34375 19.167969 22.34375 19.167969 C 22.070312 19.4375 22.480469 19.835938 22.753906 19.570312 C 22.988281 19.34375 26.507812 15.898438 26.507812 15.898438 M 21.171875 19.167969 C 21.445312 19.4375 21.035156 19.839844 20.761719 19.570312 C 20.761719 19.570312 17.277344 16.164062 17.007812 15.898438 C 16.734375 15.632812 17.144531 15.230469 17.417969 15.496094 C 17.417969 15.496094 20.9375 18.941406 21.171875 19.167969 M 17.417969 5.425781 C 17.144531 5.15625 16.734375 5.558594 17.007812 5.828125 C 17.277344 6.09375 20.761719 9.5 20.761719 9.5 C 21.035156 9.765625 21.445312 9.363281 21.171875 9.097656 C 20.9375 8.867188 17.417969 5.425781 17.417969 5.425781 M 10.839844 19.136719 C 11.109375 19.402344 10.699219 19.804688 10.425781 19.539062 C 10.425781 19.539062 6.941406 16.132812 6.671875 15.863281 C 6.398438 15.597656 6.808594 15.195312 7.082031 15.460938 C 7.082031 15.460938 10.605469 18.90625 10.839844 19.136719 M 29.6875 27.492188 L 29.277344 27.890625 L 22.339844 21.109375 C 22.066406 20.84375 22.476562 20.441406 22.75 20.707031 C 22.984375 20.9375 29.6875 27.492188 29.6875 27.492188 M 10.464844 20.710938 C 10.734375 20.445312 11.148438 20.847656 10.875 21.113281 L 3.9375 27.894531 L 3.527344 27.492188 C 3.527344 27.492188 10.226562 20.941406 10.464844 20.710938 M 29.277344 2.316406 L 29.6875 2.71875 L 22.75 9.503906 C 22.476562 9.769531 22.066406 9.367188 22.339844 9.101562 C 22.574219 8.871094 29.277344 2.316406 29.277344 2.316406 M 10.875 9.101562 C 11.148438 9.367188 10.734375 9.769531 10.464844 9.503906 L 3.527344 2.722656 L 3.9375 2.320312 C 3.9375 2.320312 10.640625 8.871094 10.875 9.101562 M 29.6875 17.421875 L 29.277344 17.820312 L 27.308594 15.898438 C 27.035156 15.632812 27.445312 15.230469 27.71875 15.496094 C 27.953125 15.726562 29.6875 17.421875 29.6875 17.421875 M 27.304688 14.3125 C 27.035156 14.578125 27.445312 14.980469 27.714844 14.714844 L 29.6875 12.789062 L 29.277344 12.386719 C 29.277344 12.386719 27.542969 14.082031 27.304688 14.3125 M 18.972656 2.3125 L 19.382812 2.714844 L 17.417969 4.640625 C 17.144531 4.90625 16.734375 4.503906 17.003906 4.238281 C 17.238281 4.007812 18.972656 2.3125 18.972656 2.3125 M 15.796875 4.640625 C 16.070312 4.90625 16.480469 4.503906 16.207031 4.238281 L 14.238281 2.3125 L 13.828125 2.714844 C 13.828125 2.714844 15.5625 4.410156 15.796875 4.640625 M 3.527344 17.425781 L 3.9375 17.828125 L 5.90625 15.902344 C 6.179688 15.636719 5.769531 15.234375 5.496094 15.5 C 5.261719 15.730469 3.527344 17.425781 3.527344 17.425781 M 5.90625 14.316406 C 6.179688 14.582031 5.769531 14.984375 5.496094 14.71875 L 3.527344 12.792969 L 3.9375 12.390625 C 3.9375 12.390625 5.671875 14.085938 5.90625 14.316406 M 14.238281 27.894531 L 13.828125 27.496094 L 15.796875 25.570312 C 16.066406 25.304688 16.480469 25.703125 16.207031 25.972656 C 15.972656 26.199219 14.238281 27.894531 14.238281 27.894531 M 17.417969 25.566406 C 17.144531 25.300781 16.734375 25.703125 17.007812 25.96875 L 18.976562 27.894531 L 19.386719 27.492188 C 19.386719 27.492188 17.652344 25.796875 17.417969 25.566406 "/>
</g>
</g>
</svg>
